<?xml version="1.0" encoding="UTF-8" standalone="no"?>
<!-- Created with Inkscape (http://www.inkscape.org/) -->

<svg
   width="158.80116mm"
   height="170.61455mm"
   viewBox="0 0 158.80116 170.61455"
   version="1.1"
   id="svg5"
   inkscape:version="1.4.2 (ebf0e940d0, 2025-05-08)"
   sodipodi:docname="valt-logo.svg"
   xmlns:inkscape="http://www.inkscape.org/namespaces/inkscape"
   xmlns:sodipodi="http://sodipodi.sourceforge.net/DTD/sodipodi-0.dtd"
   xmlns="http://www.w3.org/2000/svg"
   xmlns:svg="http://www.w3.org/2000/svg">
  <sodipodi:namedview
     id="namedview7"
     pagecolor="#ffffff"
     bordercolor="#000000"
     borderopacity="0.25"
     inkscape:showpageshadow="2"
     inkscape:pageopacity="0.0"
     inkscape:pagecheckerboard="0"
     inkscape:deskcolor="#d1d1d1"
     inkscape:document-units="mm"
     showgrid="false"
     inkscape:zoom="0.443628"
     inkscape:cx="963.64522"
     inkscape:cy="-475.62372"
     inkscape:window-width="3360"
     inkscape:window-height="1368"
     inkscape:window-x="1760"
     inkscape:window-y="0"
     inkscape:window-maximized="0"
     inkscape:current-layer="layer1" />
  <defs
     id="defs2">
    <rect
       x="146.80067"
       y="552.50433"
       width="437.73291"
       height="440.40204"
       id="rect3" />
    <rect
       x="310.10345"
       y="334.62692"
       width="204.09869"
       height="203.30762"
       id="rect2" />
    <rect
       x="327.5072"
       y="339.37341"
       width="156.63388"
       height="196.97897"
       id="rect1" />
    <rect
       x="327.21191"
       y="353.31934"
       width="141.40096"
       height="149.35936"
       id="rect2552" />
    <rect
       x="323.05145"
       y="361.245"
       width="156.75821"
       height="163.33685"
       id="rect2497" />
  </defs>
  <g
     inkscape:label="Layer 1"
     inkscape:groupmode="layer"
     id="layer1"
     transform="translate(-26.536882,-37.136235)">
    <path
       id="rect1672"
       style="display:inline;fill:#000000;stroke-width:0.264583"
       d="m 53.176599,37.136235 c -14.758597,0 -26.639717,11.431939 -26.639717,25.63151 V 170.30692 c 0,14.19957 11.88112,25.63099 26.639717,25.63099 H 158.69781 c 14.75859,0 26.64023,-11.43142 26.64023,-25.63099 V 62.767745 c 0,-14.199571 -11.88164,-25.63151 -26.64023,-25.63151 z m 4.346505,4.78472 h 97.762506 c 13.67348,0 24.6817,10.683555 24.6817,23.954094 V 166.37796 c 0,13.27054 -11.00822,23.95409 -24.6817,23.95409 H 57.523104 c -13.673474,0 -24.681181,-10.68355 -24.681181,-23.95409 V 65.875049 c 0,-13.270539 11.007707,-23.954094 24.681181,-23.954094 z" />
    <path
       id="rect1672-6"
       style="display:inline;fill:#000000;stroke-width:0.230378"
       d="m 61.302725,45.737905 c -12.613575,0 -22.767889,10.141268 -22.767889,22.737701 v 95.397944 c 0,12.59643 10.154314,22.73724 22.767889,22.73724 h 90.184695 c 12.61358,0 22.76833,-10.14081 22.76833,-22.73724 V 68.475606 c 0,-12.596433 -10.15475,-22.737701 -22.76833,-22.737701 z m 3.71478,4.244522 h 83.553665 c 11.68617,0 21.09443,9.477377 21.09443,21.249665 v 89.156088 c 0,11.77228 -9.40826,21.24966 -21.09443,21.24966 H 65.017505 c -11.686165,0 -21.094004,-9.47738 -21.094004,-21.24966 V 71.232092 c 0,-11.772288 9.407839,-21.249665 21.094004,-21.249665 z" />
    <ellipse
       style="fill:#000000;stroke-width:0.174951"
       id="path2083"
       cx="104.65549"
       cy="117.07047"
       rx="37.363235"
       ry="39.308884" />
    <rect
       style="fill:#000000;stroke-width:0.292908"
       id="rect2414"
       width="14.572763"
       height="45.773266"
       x="35.567162"
       y="67.649933"
       rx="8.9977407"
       ry="6.2241445" />
    <rect
       style="fill:#000000;stroke-width:0.292908"
       id="rect2414-7"
       width="14.572763"
       height="45.773266"
       x="35.109245"
       y="120.16306"
       rx="8.9977407"
       ry="6.2241445" />
    <text
       xml:space="preserve"
       transform="matrix(0.92997482,0,0,0.7501835,-206.96066,-170.16506)"
       id="text2"
       style="font-size:85.3333px;text-align:start;writing-mode:lr-tb;direction:ltr;white-space:pre;shape-inside:url(#rect2);fill:#f9f9f9"><tspan
         x="310.10352"
         y="410.12692"
         id="tspan4"><tspan
           style="font-weight:bold;font-family:'Liberation Mono';-inkscape-font-specification:'Liberation Mono Bold'"
           id="tspan3">₿</tspan></tspan></text>
    <text
       xml:space="preserve"
       transform="scale(0.26458333)"
       id="text3"
       style="font-size:85.3333px;text-align:start;writing-mode:lr-tb;direction:ltr;white-space:pre;shape-inside:url(#rect3);fill:#f9f9f9" />
    <rect
       style="fill:#000000;stroke-width:0.264583"
       id="rect5"
       width="21.06517"
       height="30.978191"
       x="155.35568"
       y="100.4304"
       ry="7.8478088"
       rx="5.3695536" />
    <rect
       style="fill:#000000;stroke-width:0.264583"
       id="rect6"
       width="39.239044"
       height="14.869532"
       x="51.217278"
       y="192.06479"
       rx="5.3695536"
       ry="7.8478084" />
    <rect
       style="fill:#000000;stroke-width:0.264583"
       id="rect6-1"
       width="39.239044"
       height="14.869532"
       x="123.82571"
       y="192.88126"
       rx="5.3695536"
       ry="7.8478084" />
  </g>
</svg>
